<svg xmlns="http://www.w3.org/2000/svg" viewBox="0 0 256 256">
  <rect width="256" height="256" fill="none"/>
  <path d="M186.4 27.5H153.3v104.1c-10.3 1.9-18 2.7-26.2 2.7-24.7 0-37.7-11.2-37.7-32.9 0-20.8 13.9-34.3 35.5-34.3 3.3 0 6.3.3 9.9 1.1V27.9c-3.2-.7-7.6-0.9-11.8-0.9-36.8 0-57.1 22.8-57.1 63.1 0 39.2 19.5 60.5 57.9 60.5 10.8 0 21.8-1.1 32-3.1V27.5z" fill="#092E20"/>
  <path d="M204.7 75.2v60.6c0 20.8-1.5 30.9-6.1 39.5-4.2 8.3-9.8 13.8-21.4 19.7L148 181.4c11.6-5.4 17.1-10.1 20.8-17.4 3.8-7.5 5-16.3 5-39.3V75.2h30.9zM204.2 27.5H173v33.8h31.2V27.5z" fill="#092E20"/>
</svg>
