<svg xmlns="http://www.w3.org/2000/svg" viewBox="0 0 598.88 1333.33">
  <path fill="#10aa50" d="M295.27 3.65l35.58 66.83c8 12.33 16.19 24.63 21.61 38.31 12.84 27.38 21.11 56.57 27.21 86.11 5.25 21.57 6.18 43.63 6.39 65.71.37 26-.76 52.05-4.3 77.8-4.5 30.56-12.61 60.35-24.38 88.8-7.05 15.4-14.29 30.78-24.68 44.13-5.37 6.62-11.45 12.69-17.27 18.94-10.54 10.56-22.37 19.38-34.94 27.1-11.15 6.42-22.41 12.58-33.92 18.2-13.84 6.44-26.75 14.45-38.43 24.27-6.21 5.43-12.19 11.14-17.7 17.26-5.88 6.63-11.38 13.58-16.15 21.06-11.21 16.92-19.38 35.72-24.69 55.29-3.69 14.34-6.37 28.94-7.96 43.66-1.67 19.7-2.14 39.47-1.35 59.2 1.15 22.06 3.85 44.09 8.88 65.68 2.5 8.94 4.1 18.1 6.32 27.12 1.07 5.53 2.86 10.91 3.88 16.47.15.33.3.67.46 1 .16.34.32.67.47 1 .16.34.31.67.45 1.01.15.34.29.67.42 1.01.12.34.23.68.33 1.02.1.35.19.69.27 1.03.08.35.15.69.2 1.04.05.35.09.7.12 1.05.03.35.03.7.03 1.05s-.01.7-.04 1.05c-.03.35-.07.7-.13 1.04-.05.35-.12.69-.21 1.03-.08.34-.17.68-.28 1.02-.11.34-.23.67-.36 1-.13.33-.27.66-.43.98-.16.32-.32.64-.5.95-.18.3-.37.61-.57.9-.2.29-.41.57-.63.84-.23.27-.46.53-.71.78-.25.25-.51.49-.77.73-.27.23-.55.45-.84.66-.29.21-.59.4-.89.59-.31.19-.62.36-.94.52-.32.16-.65.31-.98.45-.33.14-.67.26-1.01.38-.34.12-.69.21-1.04.3-.35.09-.7.16-1.05.22-.36.05-.71.09-1.07.11-.36.02-.71.03-1.07.02-.35-.01-.71-.04-1.06-.08-.35-.04-.7-.09-1.04-.16-.35-.07-.69-.15-1.03-.24-.33-.09-.67-.2-1-.32-.33-.12-.65-.25-.97-.39s-.63-.29-.94-.46c-.3-.16-.59-.34-.88-.53s-.56-.39-.82-.61c-.26-.21-.52-.44-.76-.68-.25-.24-.48-.49-.7-.75-.22-.26-.42-.53-.62-.81-.19-.28-.38-.56-.55-.86s-.33-.6-.47-.91c-.15-.31-.28-.63-.4-.95-.12-.33-.23-.65-.32-.99-.09-.34-.17-.68-.24-1.02-.07-.35-.12-.69-.16-1.04-.04-.35-.07-.7-.08-1.05s0-.71.03-1.06c.03-.35.08-.7.14-1.04.06-.35.14-.69.23-1.02.09-.34.19-.67.31-1 .12-.33.25-.65.39-.97.14-.32.29-.63.46-.94.16-.3.34-.6.53-.88.18-.29.38-.57.59-.84.2-.27.43-.52.66-.77.22-.25.46-.48.7-.71.24-.22.5-.43.76-.63.26-.2.52-.38.8-.56.27-.17.56-.33.84-.47.29-.15.58-.28.88-.4.3-.12.61-.22.92-.31.31-.09.63-.16.94-.22.32-.05.64-.09.96-.12.32-.02.65-.02.97-.01s.64.04.96.08c.32.04.64.1.95.17.31.07.62.16.92.26.31.1.61.21.9.34.3.12.58.26.86.41.28.15.56.31.82.48.27.17.52.36.77.55.25.19.49.4.71.62.23.22.44.45.65.69.2.23.4.48.58.73.18.25.35.52.5.79.16.27.3.55.42.84.13.29.24.58.34.88.1.3.19.61.26.92.07.31.13.63.17.94.04.32.07.64.09.96.01.32.01.64.01.97-.01.32-.04.65-.08.97-.04.32-.09.64-.15.96-.07.32-.15.63-.25.94-.09.31-.2.61-.33.91-.12.3-.25.59-.4.87-.14.29-.3.57-.47.84-.17.27-.35.53-.55.78-.19.25-.4.5-.61.73-.21.23-.43.45-.67.66-.23.21-.47.41-.72.6-.25.19-.51.37-.78.53-.27.17-.54.32-.83.47-.28.14-.58.27-.87.39-.3.12-.6.22-.91.31-.31.09-.62.17-.94.23-.32.06-.64.11-.97.14-.33.03-.66.05-.98.05-.33.01-.66 0-.98-.03-.33-.02-.65-.06-.97-.11-.32-.05-.64-.12-.95-.2-.31-.08-.62-.18-.92-.29-.3-.12-.6-.24-.89-.38-.32-.14-.62-.29-.9-.47"/>
  <path fill="#b8c4c2" d="M294.35 1318.27c-.13-.33-.24-.66-.33-1-.1-.34-.19-.68-.25-1.02l-.15-1.04c-.03-.35-.03-.7-.01-1.06.02-.35.07-.7.13-1.05.06-.35.14-.69.24-1.03.1-.34.22-.67.36-1 .14-.33.3-.64.47-.94.17-.31.36-.6.56-.88s.42-.55.65-.81c.23-.26.48-.5.73-.74.26-.23.53-.44.81-.65.28-.2.58-.38.87-.55.3-.17.6-.32.91-.46.31-.14.63-.26.96-.36.33-.1.66-.19 1-.26.34-.07.69-.12 1.03-.15.35-.03.7-.04 1.05-.04.35.01.7.03 1.04.08.35.04.69.1 1.03.17s.67.17 1 .28c.32.1.65.23.96.37.31.14.61.29.91.46.29.17.58.36.85.55.27.2.53.42.78.65.25.23.48.48.7.74.22.26.43.53.62.82.19.28.37.58.53.88.16.3.3.62.43.94.13.32.24.65.34 1 .1.34.18.68.24 1.03.06.35.1.7.13 1.05.02.35.02.71 0 1.06-.02.35-.06.7-.12 1.04s-.15.68-.25 1.02c-.1.33-.22.66-.35 1-.13.33-.28.65-.45.96-.17.31-.35.6-.54.89-.2.28-.42.55-.65.81-.23.26-.48.5-.74.73-.25.23-.52.44-.8.64-.28.2-.57.38-.86.55-.3.17-.61.32-.92.45-.31.14-.64.26-.97.36-.33.1-.66.19-1 .26-.34.07-.68.12-1.03.15-.35.03-.7.04-1.05.03-.35 0-.7-.04-1.04-.08-.35-.04-.69-.1-1.03-.18-.34-.07-.67-.17-.99-.28-.33-.11-.65-.23-.96-.38-.31-.14-.61-.3-.9-.47-.29-.17-.57-.36-.85-.56-.27-.2-.53-.42-.78-.65-.25-.23-.48-.48-.7-.74-.22-.26-.43-.54-.62-.82-.19-.28-.36-.58-.52-.88-.15-.31-.29-.63-.42-.96zm0 0c.13.33.28.65.45.96.17.31.35.6.55.88.19.28.41.55.64.8.23.25.47.49.73.71.25.22.52.43.8.62.27.19.56.36.86.52.29.16.6.3.91.42.31.12.63.22.96.3.32.08.65.15 1 .19.33.05.68.07 1.02.08.34.01.69-.01 1.04-.04.34-.03.68-.08 1.02-.15.33-.07.66-.15.98-.25.32-.1.64-.22.95-.35.3-.13.6-.28.89-.44.29-.16.57-.34.84-.53.27-.19.53-.4.77-.62.24-.22.47-.46.68-.71.21-.25.41-.51.6-.79.18-.27.35-.56.5-.85.15-.3.29-.6.4-.92.12-.31.22-.64.29-.96.08-.33.14-.66.18-1 .04-.34.06-.68.06-1.02 0-.34-.02-.68-.07-1.01-.04-.34-.1-.67-.18-1-.08-.33-.18-.65-.3-.97-.11-.32-.25-.62-.4-.92-.15-.3-.32-.58-.5-.86-.18-.28-.39-.54-.6-.79-.21-.25-.44-.49-.69-.72-.24-.22-.5-.43-.77-.62-.27-.19-.55-.38-.84-.53-.29-.16-.59-.31-.9-.44-.31-.13-.62-.24-.95-.34-.32-.1-.65-.18-.98-.24-.34-.06-.68-.1-1.02-.13-.34-.02-.69-.02-1.03-.01s-.68.04-1.01.09c-.34.04-.67.11-1 .19-.33.08-.65.18-.96.3-.32.12-.62.25-.91.41-.3.15-.59.32-.87.51-.28.19-.54.39-.8.61-.25.22-.49.46-.72.71-.23.25-.44.52-.63.8-.2.28-.37.57-.53.88-.19.57-.37 1.16-.32 1.76"/>
  <path fill="#12924f" d="M331.34 1089.83c-.68-3.24-1.46-6.47-2.26-9.7-1.85-7.4-3.41-14.85-5.11-22.28-2.46-10.04-4.25-20.22-6.34-30.33-2.3-10.88-4.37-21.82-6.7-32.71-2.61-12.1-5.02-24.26-7.34-36.43-2.61-13.4-5.53-26.77-7.52-40.28-1.77-12.24-3.33-24.51-4.46-36.82-1.32-13.92-2.46-27.87-2.73-41.85-.15-9.28-.24-18.56-.11-27.84.14-8.68.35-17.35.76-26.02.28-6.28.42-12.59 1.19-18.82 1.05-10.87 2.13-21.75 3.69-32.55 1.27-8.59 2.59-17.18 4.09-25.73.87-4.95 1.83-9.89 2.71-14.84.82-4.51 2.02-8.94 2.81-13.46.91-5.17 2.17-10.26 3.1-15.41 1.12-6.3 2.16-12.61 3.45-18.88 1.1-5.34 2.3-10.66 3.56-15.97 1.12-4.82 2.21-9.67 3.54-14.41 1.54-5.55 3.21-11.06 4.93-16.55 3.63-11.62 7.75-23.06 11.76-34.54 1.92-5.38 3.56-10.86 5.62-16.18 1.66-4.28 3.34-8.55 5.11-12.79 1.62-3.88 3.19-7.8 5.03-11.59 2.32-4.86 4.67-9.71 7.22-14.46 2.57-4.77 5.22-9.49 8.01-14.13 2.26-3.75 4.54-7.49 6.91-11.17 2.29-3.56 4.6-7.12 7.01-10.6 2.31-3.34 4.74-6.59 7.13-9.87 4.82-6.57 9.85-12.97 14.8-19.43 1.18-1.55 2.4-3.08 3.59-4.62-8.9 12.04-17.29 24.48-24.45 37.6-3.57 6.53-6.98 13.16-9.91 20.02-2.83 6.65-5.49 13.39-7.79 20.24-2.25 6.7-4.23 13.49-6.05 20.34-1.72 6.44-3.35 12.9-4.77 19.43-1.36 6.23-2.58 12.49-3.66 18.77-1.05 6.19-2.04 12.4-2.83 18.64-.74 5.92-1.44 11.85-1.97 17.79-.56 6.05-.89 12.14-1.29 18.21-.46 7.28-.71 14.58-.9 21.87-.21 7.64-.23 15.28-.16 22.93.06 6.61.22 13.22.48 19.82.29 7.51.7 15.01 1.28 22.5.51 6.59 1.09 13.18 1.85 19.74.68 5.92 1.43 11.83 2.29 17.72.86 5.92 1.78 11.83 2.8 17.72.98 5.72 2.06 11.42 3.23 17.11 1.11 5.37 2.25 10.73 3.52 16.07 1.21 5.06 2.49 10.1 3.88 15.11 1.34 4.83 2.7 9.66 4.19 14.45 1.52 4.88 3.05 9.75 4.69 14.59 1.73 5.07 3.56 10.11 5.51 15.11 2.08 5.33 4.19 10.65 6.57 15.84 2.54 5.56 5.17 11.09 8.04 16.49 3.04 5.69 6.26 11.27 9.9 16.62 3.84 5.62 7.93 11.04 12.52 16.04 4.8 5.24 10.34 9.72 16.64 13.21 6.73 3.72 14.37 5.71 22.06 6.11 7.72.41 15.44.05 23.16.13l-.22 2.68c-8.4-.08-16.81.24-25.22-.15-8.56-.4-17.03-2.47-24.45-6.79-6.9-4.02-12.97-9.18-18.3-14.95-5.06-5.5-9.56-11.5-13.73-17.62-3.85-5.66-7.31-11.54-10.51-17.54-2.96-5.6-5.71-11.3-8.33-17.06-2.37-5.26-4.57-10.58-6.71-15.94-2.04-5.09-3.96-10.23-5.76-15.4-1.67-4.81-3.25-9.66-4.79-14.51-1.52-4.78-2.91-9.6-4.25-14.44-1.41-5.05-2.7-10.13-3.94-15.23-1.21-4.97-2.38-9.95-3.41-14.95-1.08-5.26-2.12-10.53-3.08-15.82-1.05-5.8-2.01-11.61-2.9-17.44-.85-5.57-1.64-11.15-2.33-16.74-.76-6.11-1.44-12.23-1.98-18.36-.65-7.27-1.2-14.56-1.61-21.85-.39-6.81-.7-13.63-.85-20.45-.17-7.21-.31-14.42-.16-21.63.11-7.33.33-14.65.77-21.97.12-2.1.21-4.2.34-6.3.06-2.97.43-5.91.63-8.87.42-5.94 1.07-11.86 1.73-17.77.64-5.67 1.33-11.34 2.21-16.97.92-5.89 1.9-11.77 3.04-17.61.58-2.93 1.18-5.85 1.77-8.77.63-3.09 1.39-6.16 2.09-9.24 1.52-6.6 3.18-13.16 5.02-19.67 1.78-6.3 3.73-12.55 5.92-18.69 2.1-5.91 4.26-11.8 6.73-17.57 2.33-5.46 4.82-10.85 7.52-16.12 2.91-5.68 5.94-11.29 9.24-16.71 6.73-11.06 14.26-21.66 22.57-31.65l.41-.49-38.98 68.05c-1.02 1.79-.09 4.05 1.84 4.55l.3.08c1.33.4 2.82-.09 3.58-1.27l38.64-59.73c-5.32 16.6-14.64 31.27-25.08 44.76-2.84 3.68-5.75 7.32-8.05 11.35-2.19 3.83-4.27 7.73-6.22 11.68-2.02 4.09-3.9 8.27-5.65 12.48-1.79 4.32-3.45 8.7-5.03 13.1-1.59 4.4-3.01 8.87-4.34 13.36-1.25 4.21-2.39 8.46-3.41 12.74-.97 4.06-1.99 8.12-2.73 12.24-.73 4.1-1.61 8.18-2.1 12.32-.57 4.65-1.46 9.24-1.89 13.92-.49 5.41-1.18 10.79-1.52 16.22-.36 5.98-.68 11.96-.96 17.94-.27 5.84-.39 11.68-.36 17.52.01 5.89.13 11.79.42 17.68.28 5.65.68 11.3 1.14 16.93.45 5.53 1.05 11.04 1.79 16.53.74 5.46 1.62 10.9 2.61 16.31 1.01 5.51 2.11 11 3.33 16.46 1.27 5.64 2.69 11.24 4.21 16.8 1.58 5.76 3.2 11.5 5.04 17.17 1.92 5.91 3.91 11.78 6.14 17.57 2.32 6.03 4.77 12 7.43 17.85 2.47 5.43 5.12 10.77 7.98 15.98 2.74 5 5.66 9.88 8.7 14.69 3.21 5.07 6.48 10.11 10.04 14.95 3.47 4.73 7.07 9.35 10.89 13.8 3.84 4.48 7.85 8.82 12.2 12.79 4.46 4.07 9.19 7.82 14.29 11.09 5.31 3.42 10.96 6.32 16.82 8.77 1.76.73 3.67 1.14 5.35 2.03 2.05 1.08 4.27 1.79 6.46 2.57 2.22.8 4.39 1.53 6.67 2.09 2.16.53 4.34 1.03 6.53 1.43 2.04.36 4.09.69 6.16.89 2.45.22 4.9.33 7.36.37 2.63.04 5.26-.21 7.88-.33-2.51.18-5.01.86-7.52 1.13-2.75.22-5.51.3-8.27.18-2.78-.09-5.55-.33-8.31-.79-2.68-.44-5.32-1.04-7.93-1.79-5.47-1.52-10.79-3.52-15.95-5.92-5.09-2.39-9.97-5.17-14.64-8.24-4.94-3.26-9.53-6.97-13.85-10.98-4.3-3.99-8.31-8.28-12.15-12.72-3.91-4.51-7.53-9.25-10.9-14.14-3.42-4.95-6.61-10.06-9.54-15.34-2.76-5-5.28-10.14-7.68-15.37-2.45-5.32-4.67-10.76-6.8-16.25-2.11-5.38-4.03-10.83-5.87-16.33-1.88-5.55-3.53-11.19-5.08-16.86-1.58-5.72-3.09-11.47-4.39-17.27-1.31-5.84-2.5-11.71-3.58-17.6-1.08-5.94-2.02-11.9-2.87-17.89-.9-6.34-1.68-12.7-2.3-19.08-.66-6.7-1.17-13.41-1.55-20.14-.38-6.78-.65-13.56-.76-20.35-.12-6.98-.07-13.96.12-20.94.19-7.23.58-14.45 1.14-21.66.26-3.33.51-6.65.86-9.97.17-1.64.36-3.28.54-4.92.12-.91.21-1.83.34-2.74.12-.9.39-1.77.51-2.68.23-.91.4-1.83.6-2.75.22-.91.43-1.82.7-2.72.84-3.57 1.65-7.14 2.54-10.7.48-1.78.95-3.57 1.44-5.35.52-1.76 1.08-3.51 1.63-5.27.59-1.73 1.15-3.46 1.82-5.17.67-1.71 1.32-3.42 2.02-5.12.71-1.7 1.49-3.38 2.24-5.07.77-1.68 1.52-3.37 2.39-5 1.7-3.28 3.5-6.52 5.32-9.74 1.78-3.23 3.75-6.36 5.77-9.44.52-.77 1.02-1.55 1.57-2.3.51-.77 1.08-1.5 1.62-2.25 1.14-1.45 2.24-2.94 3.42-4.35 1.14-1.44 2.37-2.79 3.58-4.18 1.19-1.41 2.51-2.7 3.78-4.03 1.28-1.31 2.61-2.56 3.98-3.79 1.36-1.22 2.76-2.38 4.21-3.51 1.43-1.13 2.91-2.19 4.42-3.22 3.13-2.11 6.29-4.16 9.68-5.9l.63-.32c.11-.06.21-.11.31-.17.11-.07.21-.12.31-.18l.62-.36c.41-.24.83-.46 1.24-.69 1.65-.92 3.29-1.83 4.94-2.73 3.29-1.78 6.59-3.52 9.94-5.18.89-.45 1.79-.88 2.71-1.28.9-.42 1.82-.81 2.73-1.21 1.82-.81 3.65-1.6 5.48-2.38 3.71-1.52 7.48-2.94 11.28-4.21 1.9-.64 3.83-1.2 5.74-1.78 1.93-.56 3.87-1.1 5.82-1.59 3.91-.99 7.84-1.92 11.8-2.65 1.99-.39 3.99-.72 5.98-1.04 2.01-.29 4.02-.58 6.03-.82 4.04-.54 8.09-.96 12.15-1.27 8.16-.63 16.35-.79 24.53-.71 8.18.06 16.34.59 24.46 1.36 8.1.82 16.15 1.92 24.08 3.49 1.98.37 3.95.8 5.9 1.25 1.96.44 3.89.96 5.82 1.48 3.87 1.04 7.67 2.3 11.41 3.71 7.45 2.78 14.53 6.41 21.24 10.63 6.72 4.21 13.04 9.04 18.85 14.37 5.8 5.33 11.11 11.15 15.81 17.4 4.71 6.26 8.85 12.92 12.28 19.9 3.42 6.98 6.17 14.27 8.12 21.81.49 1.89.92 3.8 1.32 5.71.3 1.97.61 3.94.8 5.93.21 2 .48 3.99.54 6.01.04 4.03.25 8.05-.04 12.08-.25 4.04-.62 8.07-1.23 12.07-.67 4-1.43 7.96-2.62 11.84-1.14 3.88-2.49 7.69-4.1 11.39-1.63 3.69-3.35 7.31-5.51 10.74-2.09 3.45-4.44 6.75-7.07 9.83-5.25 6.18-11.52 11.51-18.35 15.94-6.84 4.42-14.23 8.02-21.86 10.98-7.69 2.85-15.62 5-23.59 6.78l-6.12 1.32-6.18 1.05c-4.13.63-8.25 1.21-12.41 1.63-4.14.48-8.28.91-12.44 1.09-4.15.21-8.28.26-12.41.3" fill-rule="evenodd"/>
</svg>
